#Comment line ignore any data following # character 
#Hierarchical Translation and Rotation (.htr) file 
[Header]	
#Header keywords are followed by a single value 
FileType HTR		#Single word string
DataType HTRS		#Translation followed by rotation and scale data
FileVersion 1		#integer
NumSegments 84		#integer
NumFrames 2		#integer
DataFrameRate 30		#integer, data frame rate in this file
EulerRotationOrder ZYX
CalibrationUnits mm
RotationUnits Degrees
GlobalAxisofGravity Y
BoneLengthAxis Y
ScaleFactor 1.00
[SegmentNames&Hierarchy]
#CHILD	PARENT
MASTER GLOBAL
root MASTER
chest root
L_mid_tent01 root
R_mid_tent01 root
spine01 root
Bip01_Neck chest
L_humerus chest
R_humerus chest
weapon_bone chest
Bip01_Head Bip01_Neck
eye_left_bone Bip01_Head
eye_right_bone Bip01_Head
L_forearm L_humerus
L_front_hand L_forearm
L_weapon_bone L_forearm
L_front_hand01_01 L_front_hand
L_front_hand02_01 L_front_hand
L_front_hand03_01 L_front_hand
L_front_hand01_02 L_front_hand01_01
L_front_hand02_02 L_front_hand02_01
L_front_hand03_02 L_front_hand03_01
R_forearm R_humerus
R_front_hand R_forearm
R_weapon_bone R_forearm
R_front_hand01_01 R_front_hand
R_front_hand02_01 R_front_hand
R_front_hand03_01 R_front_hand
R_front_hand01_02 R_front_hand01_01
R_front_hand02_02 R_front_hand02_01
R_front_hand03_02 R_front_hand03_01
null_rope01_connect L_mid_tent01
Rope1_Seg01 null_rope01_connect
Rope1_Seg02 Rope1_Seg01
Rope1_Seg03 Rope1_Seg02
Rope1_Seg04 Rope1_Seg03
Rope1_Seg05 Rope1_Seg04
Rope1_Seg06 Rope1_Seg05
Rope1_Seg07 Rope1_Seg06
Rope1_Seg09 Rope1_Seg07
L_mid_hand01 Rope1_Seg09
L_mid_hand02 Rope1_Seg09
L_mid_hand03 Rope1_Seg09
null_rope02_connect R_mid_tent01
Rope2_Seg01 null_rope02_connect
Rope2_Seg02 Rope2_Seg01
Rope2_Seg03 Rope2_Seg02
Rope2_Seg04 Rope2_Seg03
Rope2_Seg05 Rope2_Seg04
Rope2_Seg06 Rope2_Seg05
Rope2_Seg07 Rope2_Seg06
Rope2_Seg09 Rope2_Seg07
R_mid_hand01 Rope2_Seg09
R_mid_hand02 Rope2_Seg09
R_mid_hand03 Rope2_Seg09
spine02 spine01
spine03 spine02
pelvis spine03
null_rope03_connect pelvis
null_rope04_connect pelvis
Rope3_Seg01 null_rope03_connect
Rope3_Seg02 Rope3_Seg01
Rope3_Seg03 Rope3_Seg02
Rope3_Seg04 Rope3_Seg03
Rope3_Seg05 Rope3_Seg04
Rope3_Seg06 Rope3_Seg05
Rope3_Seg07 Rope3_Seg06
Rope3_Seg08 Rope3_Seg07
Rope3_Seg09 Rope3_Seg08
R_rear_hand01 Rope3_Seg09
R_rear_hand02 Rope3_Seg09
R_rear_hand03 Rope3_Seg09
Rope4_Seg01 null_rope04_connect
Rope4_Seg02 Rope4_Seg01
Rope4_Seg03 Rope4_Seg02
Rope4_Seg04 Rope4_Seg03
Rope4_Seg05 Rope4_Seg04
Rope4_Seg06 Rope4_Seg05
Rope4_Seg07 Rope4_Seg06
Rope4_Seg08 Rope4_Seg07
Rope4_Seg09 Rope4_Seg08
L_rear_hand01 Rope4_Seg09
L_rear_hand02 Rope4_Seg09
L_rear_hand03 Rope4_Seg09
[BasePosition]
#SegmentName Tx, Ty, Tz, Rx, Ry, Rz, BoneLength
MASTER 0.000000 0.000000 0.000000 -90.000000 0.000000 0.000000 10.000000 
root 0.000000 0.000000 0.000000 0.000000 0.000000 0.000000 10.000000 
chest 0.000000 0.000000 0.000000 0.000000 0.000000 0.000000 10.000000 
L_mid_tent01 0.000000 0.000000 0.000000 0.000000 0.000000 0.000000 10.000000 
R_mid_tent01 0.000000 0.000000 0.000000 0.000000 0.000000 0.000000 10.000000 
spine01 0.000000 0.000000 0.000000 0.000000 0.000000 0.000000 10.000000 
Bip01_Neck 0.000000 0.000000 0.000000 0.000000 0.000000 0.000000 10.000000 
L_humerus 0.000000 0.000000 0.000000 0.000000 0.000000 0.000000 10.000000 
R_humerus 0.000000 0.000000 0.000000 0.000000 0.000000 0.000000 10.000000 
weapon_bone 0.000000 0.000000 0.000000 0.000000 0.000000 0.000000 10.000000 
Bip01_Head 0.000000 0.000000 0.000000 0.000000 0.000000 0.000000 10.000000 
eye_left_bone 0.000000 0.000000 0.000000 0.000000 0.000000 0.000000 10.000000 
eye_right_bone 0.000000 0.000000 0.000000 0.000000 0.000000 0.000000 10.000000 
L_forearm 0.000000 0.000000 0.000000 0.000000 0.000000 0.000000 10.000000 
L_front_hand 0.000000 0.000000 0.000000 0.000000 0.000000 0.000000 10.000000 
L_weapon_bone 0.000000 0.000000 0.000000 0.000000 0.000000 0.000000 10.000000 
L_front_hand01_01 0.000000 0.000000 0.000000 0.000000 0.000000 0.000000 10.000000 
L_front_hand02_01 0.000000 0.000000 0.000000 0.000000 0.000000 0.000000 10.000000 
L_front_hand03_01 0.000000 0.000000 0.000000 0.000000 0.000000 0.000000 10.000000 
L_front_hand01_02 0.000000 0.000000 0.000000 0.000000 0.000000 0.000000 10.000000 
L_front_hand02_02 0.000000 0.000000 0.000000 0.000000 0.000000 0.000000 10.000000 
L_front_hand03_02 0.000000 0.000000 0.000000 0.000000 0.000000 0.000000 10.000000 
R_forearm 0.000000 0.000000 0.000000 0.000000 0.000000 0.000000 10.000000 
R_front_hand 0.000000 0.000000 0.000000 0.000000 0.000000 0.000000 10.000000 
R_weapon_bone 0.000000 0.000000 0.000000 0.000000 0.000000 0.000000 10.000000 
R_front_hand01_01 0.000000 0.000000 0.000000 0.000000 0.000000 0.000000 10.000000 
R_front_hand02_01 0.000000 0.000000 0.000000 0.000000 0.000000 0.000000 10.000000 
R_front_hand03_01 0.000000 0.000000 0.000000 0.000000 0.000000 0.000000 10.000000 
R_front_hand01_02 0.000000 0.000000 0.000000 0.000000 0.000000 0.000000 10.000000 
R_front_hand02_02 0.000000 0.000000 0.000000 0.000000 0.000000 0.000000 10.000000 
R_front_hand03_02 0.000000 0.000000 0.000000 0.000000 0.000000 0.000000 10.000000 
null_rope01_connect 0.000000 0.000000 0.000000 0.000000 0.000000 0.000000 10.000000 
Rope1_Seg01 0.000000 0.000000 0.000000 0.000000 0.000000 0.000000 10.000000 
Rope1_Seg02 0.000000 0.000000 0.000000 0.000000 0.000000 0.000000 10.000000 
Rope1_Seg03 0.000000 0.000000 0.000000 0.000000 0.000000 0.000000 10.000000 
Rope1_Seg04 0.000000 0.000000 0.000000 0.000000 0.000000 0.000000 10.000000 
Rope1_Seg05 0.000000 0.000000 0.000000 0.000000 0.000000 0.000000 10.000000 
Rope1_Seg06 0.000000 0.000000 0.000000 0.000000 0.000000 0.000000 10.000000 
Rope1_Seg07 0.000000 0.000000 0.000000 0.000000 0.000000 0.000000 10.000000 
Rope1_Seg09 0.000000 0.000000 0.000000 0.000000 0.000000 0.000000 10.000000 
L_mid_hand01 0.000000 0.000000 0.000000 0.000000 0.000000 0.000000 10.000000 
L_mid_hand02 0.000000 0.000000 0.000000 0.000000 0.000000 0.000000 10.000000 
L_mid_hand03 0.000000 0.000000 0.000000 0.000000 0.000000 0.000000 10.000000 
null_rope02_connect 0.000000 0.000000 0.000000 0.000000 0.000000 0.000000 10.000000 
Rope2_Seg01 0.000000 0.000000 0.000000 0.000000 0.000000 0.000000 10.000000 
Rope2_Seg02 0.000000 0.000000 0.000000 0.000000 0.000000 0.000000 10.000000 
Rope2_Seg03 0.000000 0.000000 0.000000 0.000000 0.000000 0.000000 10.000000 
Rope2_Seg04 0.000000 0.000000 0.000000 0.000000 0.000000 0.000000 10.000000 
Rope2_Seg05 0.000000 0.000000 0.000000 0.000000 0.000000 0.000000 10.000000 
Rope2_Seg06 0.000000 0.000000 0.000000 0.000000 0.000000 0.000000 10.000000 
Rope2_Seg07 0.000000 0.000000 0.000000 0.000000 0.000000 0.000000 10.000000 
Rope2_Seg09 0.000000 0.000000 0.000000 0.000000 0.000000 0.000000 10.000000 
R_mid_hand01 0.000000 0.000000 0.000000 0.000000 0.000000 0.000000 10.000000 
R_mid_hand02 0.000000 0.000000 0.000000 0.000000 0.000000 0.000000 10.000000 
R_mid_hand03 0.000000 0.000000 0.000000 0.000000 0.000000 0.000000 10.000000 
spine02 0.000000 0.000000 0.000000 0.000000 0.000000 0.000000 10.000000 
spine03 0.000000 0.000000 0.000000 0.000000 0.000000 0.000000 10.000000 
pelvis 0.000000 0.000000 0.000000 0.000000 0.000000 0.000000 10.000000 
null_rope03_connect 0.000000 0.000000 0.000000 0.000000 0.000000 0.000000 10.000000 
null_rope04_connect 0.000000 0.000000 0.000000 0.000000 0.000000 0.000000 10.000000 
Rope3_Seg01 0.000000 0.000000 0.000000 0.000000 0.000000 0.000000 10.000000 
Rope3_Seg02 0.000000 0.000000 0.000000 0.000000 0.000000 0.000000 10.000000 
Rope3_Seg03 0.000000 0.000000 0.000000 0.000000 0.000000 0.000000 10.000000 
Rope3_Seg04 0.000000 0.000000 0.000000 0.000000 0.000000 0.000000 10.000000 
Rope3_Seg05 0.000000 0.000000 0.000000 0.000000 0.000000 0.000000 10.000000 
Rope3_Seg06 0.000000 0.000000 0.000000 0.000000 0.000000 0.000000 10.000000 
Rope3_Seg07 0.000000 0.000000 0.000000 0.000000 0.000000 0.000000 10.000000 
Rope3_Seg08 0.000000 0.000000 0.000000 0.000000 0.000000 0.000000 10.000000 
Rope3_Seg09 0.000000 0.000000 0.000000 0.000000 0.000000 0.000000 10.000000 
R_rear_hand01 0.000000 0.000000 0.000000 0.000000 0.000000 0.000000 10.000000 
R_rear_hand02 0.000000 0.000000 0.000000 0.000000 0.000000 0.000000 10.000000 
R_rear_hand03 0.000000 0.000000 0.000000 0.000000 0.000000 0.000000 10.000000 
Rope4_Seg01 0.000000 0.000000 0.000000 0.000000 0.000000 0.000000 10.000000 
Rope4_Seg02 0.000000 0.000000 0.000000 0.000000 0.000000 0.000000 10.000000 
Rope4_Seg03 0.000000 0.000000 0.000000 0.000000 0.000000 0.000000 10.000000 
Rope4_Seg04 0.000000 0.000000 0.000000 0.000000 0.000000 0.000000 10.000000 
Rope4_Seg05 0.000000 0.000000 0.000000 0.000000 0.000000 0.000000 10.000000 
Rope4_Seg06 0.000000 0.000000 0.000000 0.000000 0.000000 0.000000 10.000000 
Rope4_Seg07 0.000000 0.000000 0.000000 0.000000 0.000000 0.000000 10.000000 
Rope4_Seg08 0.000000 0.000000 0.000000 0.000000 0.000000 0.000000 10.000000 
Rope4_Seg09 0.000000 0.000000 0.000000 0.000000 0.000000 0.000000 10.000000 
L_rear_hand01 0.000000 0.000000 0.000000 0.000000 0.000000 0.000000 10.000000 
L_rear_hand02 0.000000 0.000000 0.000000 0.000000 0.000000 0.000000 10.000000 
L_rear_hand03 0.000000 0.000000 0.000000 0.000000 0.000000 0.000000 10.000000 
#Beginning of Data. Separated by tabs
#Fr	Tx	Ty	Tz	Rx	Ry	Rz	SF
[MASTER]
23 0.000003 -0.000041 -3973.142822 0.001660 0.001660 0.001660 3973.142822
24 0.000003 -0.000037 -4211.742676 0.001660 0.001660 0.001660 4211.742676
[root]
23 -16.502302 -3.910542 1455.256470 -63.770863 -8.969859 -101.106232 1455.355225
24 -16.502302 -2.244406 1454.343018 -61.770279 -7.612130 -101.833412 1454.438354
[chest]
23 -84.512650 -34.090519 0.000000 1.413605 -0.251582 149.464203 91.129311
24 -84.512650 -34.090519 0.000000 1.520670 -0.191375 153.420029 91.129311
[L_mid_tent01]
23 27.299244 22.178690 -249.918610 1.792596 21.006765 79.241531 252.381577
24 27.299240 22.178703 -249.918610 3.325118 14.915477 80.934853 252.381577
[R_mid_tent01]
23 23.228794 24.509907 226.238495 163.025253 -24.472002 81.902252 228.744751
24 23.228794 24.509907 226.238495 157.927261 -40.790516 90.488297 228.744751
[spine01]
23 -0.361383 -0.195265 0.000000 0.002062 0.001122 32.879829 0.410763
24 -0.361383 -0.195265 0.000000 0.002062 0.001122 32.879829 0.410763
[Bip01_Neck]
23 165.484543 71.581718 0.000119 176.643677 -1.657967 43.431911 180.302734
24 165.484543 71.581718 0.000119 176.643677 -1.657967 43.431911 180.302734
[L_humerus]
23 -13.983130 -135.272980 -120.471481 158.391754 31.165859 -67.306854 181.680161
24 -13.983130 -135.272980 -120.471481 160.837494 25.230307 -66.043037 181.680161
[R_humerus]
23 -13.983309 -135.273102 125.287651 -176.072922 -8.300900 -88.437035 184.909012
24 -13.983309 -135.273102 125.287651 -176.568146 -9.699937 -87.117989 184.909012
[weapon_bone]
23 235.964890 -300.705902 0.000000 0.000000 -89.951546 -128.212341 382.234833
24 235.964890 -300.705902 0.000000 0.000000 -89.951546 -128.212341 382.234833
[Bip01_Head]
23 213.661987 185.109848 19.599840 31.469418 1.971002 -43.901783 283.374756
24 213.673965 185.076736 20.027466 31.273617 2.797640 -43.902241 283.392090
[eye_left_bone]
23 -24.626970 125.451866 -64.772606 0.000000 -90.000000 -99.840431 143.318359
24 -24.626970 125.451866 -64.772606 0.000000 -90.000000 -99.840431 143.318359
[eye_right_bone]
23 -24.626970 125.451866 64.327362 0.000000 -89.965736 80.156380 143.117676
24 -24.626970 125.451866 64.327362 0.000000 -89.965736 80.156380 143.117676
[L_forearm]
23 322.776093 0.000000 -0.000119 0.000113 -0.002344 -95.520531 322.776093
24 322.776093 0.000000 -0.000119 0.000111 -0.002345 -95.433662 322.776093
[L_front_hand]
23 241.149185 -0.042021 -3.300071 -178.644012 -1.819200 -28.095112 241.171753
24 241.149185 -0.042021 -3.300071 -178.651886 -1.822681 -27.901304 241.171753
[L_weapon_bone]
23 156.183838 0.000000 0.000000 0.000014 0.000007 0.000001 156.183838
24 156.183838 0.000000 0.000000 0.000014 0.000007 0.000001 156.183838
[L_front_hand01_01]
23 86.095154 20.947098 -0.655860 -0.366594 -0.477154 75.385582 88.609184
24 86.095154 20.947098 -0.655860 -0.366594 -0.477154 75.385574 88.609184
[L_front_hand02_01]
23 86.935165 -11.437475 24.513514 154.399796 -59.883835 -61.369587 91.046425
24 86.935165 -11.437475 24.513514 154.399796 -59.883835 -61.369587 91.046425
[L_front_hand03_01]
23 86.637497 -14.123976 -20.424902 -153.913849 58.118130 -62.702866 90.126129
24 86.637497 -14.123976 -20.424902 -153.913849 58.118122 -62.702866 90.126129
[L_front_hand01_02]
23 71.020905 -0.000179 0.000030 0.000334 -0.002323 -106.379684 71.020905
24 71.020905 -0.000179 0.000030 0.000334 -0.002323 -106.379684 71.020905
[L_front_hand02_02]
23 71.020927 -0.000119 0.000060 0.000334 -0.002323 -106.379684 71.020927
24 71.020927 -0.000119 0.000060 0.000334 -0.002323 -106.379684 71.020927
[L_front_hand03_02]
23 71.020905 -0.000060 0.000060 0.000334 -0.002323 -106.379684 71.020905
24 71.020905 -0.000060 0.000060 0.000334 -0.002323 -106.379684 71.020905
[R_forearm]
23 322.776428 -0.000060 0.000030 0.213159 0.008546 -93.974358 322.776428
24 322.776428 -0.000060 0.000030 0.213163 0.008433 -93.913460 322.776428
[R_front_hand]
23 238.847015 -0.006795 2.210259 -2.485478 -10.680678 -27.107374 238.857239
24 238.847015 -0.006795 2.210259 -2.528476 -10.670740 -26.878647 238.857239
[R_weapon_bone]
23 155.664093 0.002503 -0.000030 0.003487 0.001180 -90.988930 155.664078
24 155.664093 0.002503 -0.000030 0.003487 0.001180 -90.988930 155.664078
[R_front_hand01_01]
23 87.624611 14.231146 22.918642 -154.633499 -59.950619 61.746044 91.683487
24 87.624611 14.231146 22.918642 -154.633499 -59.950619 61.746044 91.683487
[R_front_hand02_01]
23 89.356956 14.367283 -19.491137 154.602661 58.302849 63.744389 92.579636
24 89.356956 14.367283 -19.491137 154.602661 58.302849 63.744389 92.579636
[R_front_hand03_01]
23 87.286232 -22.307278 -0.143439 0.162155 -0.423168 -75.767921 90.091743
24 87.286232 -22.307278 -0.143439 0.162155 -0.423168 -75.767921 90.091743
[R_front_hand01_02]
23 71.020905 0.000060 0.000119 0.002323 -0.000334 106.381714 71.020905
24 71.020905 0.000060 0.000119 0.002323 -0.000334 106.381714 71.020905
[R_front_hand02_02]
23 71.020844 -0.000030 -0.000119 0.002323 -0.000334 106.381714 71.020836
24 71.020844 -0.000030 -0.000119 0.002323 -0.000334 106.381714 71.020836
[R_front_hand03_02]
23 71.020905 0.000000 0.000030 0.002323 -0.000334 106.381714 71.020905
24 71.020905 0.000000 0.000030 0.002323 -0.000334 106.381714 71.020905
[null_rope01_connect]
23 328.732483 0.000000 -0.000238 -66.755188 -72.922813 86.172821 328.732483
24 328.732483 0.000000 -0.000238 -46.129177 -68.715233 63.376247 328.732483
[Rope1_Seg01]
23 0.000043 -0.000046 0.000172 -37.692177 64.277863 141.799622 0.000183
24 0.000045 -0.000046 0.000180 -32.932224 60.565384 145.380325 0.000191
[Rope1_Seg02]
23 139.999863 -0.000179 0.000000 -3.699904 12.041958 -7.069865 139.999863
24 139.999863 -0.000179 0.000000 -3.698101 12.606376 -7.435772 139.999863
[Rope1_Seg03]
23 139.999924 0.000060 -0.000060 -6.804779 12.980512 -6.849471 139.999924
24 139.999924 0.000060 -0.000060 -7.653696 14.496891 -7.702350 139.999924
[Rope1_Seg04]
23 139.999924 -0.000060 -0.000119 -7.026770 8.726048 -3.800425 139.999924
24 139.999924 -0.000060 -0.000119 -9.093280 10.300394 -4.222338 139.999924
[Rope1_Seg05]
23 139.999832 0.000119 -0.000060 -23.906473 14.110034 -3.208714 139.999832
24 139.999832 0.000119 -0.000060 -28.383669 14.959730 -2.891443 139.999832
[Rope1_Seg06]
23 139.999954 0.000119 -0.000060 -71.222115 26.019871 6.149901 139.999954
24 139.999954 0.000119 -0.000060 -68.893784 25.583090 9.160175 139.999954
[Rope1_Seg07]
23 139.999985 0.000060 0.000000 -18.785034 1.673276 18.783394 139.999985
24 139.999985 0.000060 0.000000 -16.271799 0.249885 18.922134 139.999985
[Rope1_Seg09]
23 121.602913 0.000119 -0.000089 -89.793175 -1.359789 0.847147 121.602913
24 121.602913 0.000119 -0.000089 -89.793175 -1.359789 0.847147 121.602913
[L_mid_hand01]
23 103.859421 1.038730 8.195221 130.544373 -67.584534 -38.866943 104.187431
24 103.859421 1.038730 8.195221 130.544373 -67.584534 -38.866943 104.187431
[L_mid_hand02]
23 105.572853 -4.139662 -10.864139 -168.923172 43.409309 -73.498886 106.211075
24 105.572853 -4.139662 -10.864139 -168.923172 43.409309 -73.498886 106.211075
[L_mid_hand03]
23 104.641464 17.579376 -3.913581 -6.012627 17.808174 74.893669 106.179977
24 104.641464 17.579376 -3.913581 -6.012627 17.808174 74.893669 106.179977
[null_rope02_connect]
23 328.732849 0.000179 -0.000119 -153.287445 44.473293 -3.460564 328.732849
24 328.732849 0.000179 -0.000119 -153.507721 24.973101 -2.790282 328.732849
[Rope2_Seg01]
23 0.000031 0.000107 0.000000 80.449654 13.100075 4.199917 0.000112
24 0.000036 0.000108 0.000000 59.546196 31.335466 -11.180254 0.000114
[Rope2_Seg02]
23 139.999741 -0.000060 -0.000119 -6.925419 -1.268669 -12.218721 139.999756
24 139.999741 -0.000060 -0.000119 -0.178966 0.525034 -0.562981 139.999756
[Rope2_Seg03]
23 140.000107 0.000030 0.000000 -3.776189 3.322288 -9.688209 140.000107
24 140.000107 0.000030 0.000000 3.018048 3.046602 4.136136 140.000107
[Rope2_Seg04]
23 139.999802 0.000000 -0.000060 -3.094873 -1.432672 -8.631615 139.999802
24 139.999802 0.000000 -0.000060 -2.136205 -1.838275 -3.392973 139.999802
[Rope2_Seg05]
23 139.999985 -0.000060 0.000119 -6.334561 -13.351357 -15.689619 139.999985
24 139.999985 -0.000060 0.000119 -11.521782 -11.646919 -20.599167 139.999985
[Rope2_Seg06]
23 139.999893 -0.000030 -0.000119 -7.370915 -9.392779 -16.295259 139.999893
24 139.999893 -0.000030 -0.000119 -9.857011 -6.072212 -20.909515 139.999893
[Rope2_Seg07]
23 139.999893 0.000060 -0.000060 -5.256492 -4.347684 -11.850279 139.999893
24 139.999893 0.000060 -0.000060 -5.050994 -1.296627 -13.548214 139.999893
[Rope2_Seg09]
23 121.338966 0.000089 -0.000060 33.793236 -1.359788 -0.847141 121.338966
24 121.338966 0.000089 -0.000060 33.793236 -1.359788 -0.847141 121.338966
[R_mid_hand01]
23 104.680779 11.144459 -10.335981 -16.212063 45.237247 70.462852 105.778534
24 104.680779 11.144459 -10.335981 -16.212063 45.237247 70.462852 105.778534
[R_mid_hand02]
23 104.070427 2.443552 8.231699 49.067368 -67.749771 39.286453 104.424065
24 104.070427 2.443552 8.231699 49.067368 -67.749771 39.286453 104.424065
[R_mid_hand03]
23 106.028137 -11.221827 -5.996406 -177.101105 15.551026 -76.585571 106.788818
24 106.028137 -11.221827 -5.996406 -177.101105 15.551026 -76.585571 106.788818
[spine02]
23 129.756927 0.001550 0.000119 -1.129680 -3.936482 8.289927 129.756927
24 129.756927 0.001550 0.000119 -1.115163 -3.931474 8.098330 129.756927
[spine03]
23 78.614014 0.082818 -4.898964 0.968911 4.230194 3.264773 78.766556
24 78.614014 0.082757 -4.898967 0.980592 4.209081 3.396215 78.766556
[pelvis]
23 169.435242 0.051022 0.000000 0.029815 -0.164208 -12.645432 169.435257
24 169.435242 0.051022 0.000000 0.025069 -0.169724 -12.391685 169.435257
[null_rope03_connect]
23 -1.257226 -2.466202 137.391083 -13.679090 -63.744720 83.487465 137.418976
24 -1.257226 -2.466202 137.391083 -14.373271 -61.476936 83.040985 137.418976
[null_rope04_connect]
23 -1.259640 -2.480268 -137.844437 -13.679090 -63.744720 83.487465 137.872513
24 -1.259640 -2.480268 -137.844437 -14.373271 -61.476936 83.040985 137.872513
[Rope3_Seg01]
23 -0.000029 -0.000017 0.000172 25.050871 -34.080231 -87.962036 0.000175
24 -0.000029 -0.000016 0.000180 32.633881 -37.081425 -99.372978 0.000183
[Rope3_Seg02]
23 139.999924 -0.000119 0.000060 1.958372 -3.816034 13.927787 139.999924
24 139.999924 -0.000119 0.000060 3.618232 -1.453082 17.993416 139.999924
[Rope3_Seg03]
23 139.999924 -0.000119 0.000119 -1.273305 -0.931499 27.799063 139.999924
24 139.999924 -0.000119 0.000119 0.477622 4.611325 34.799671 139.999924
[Rope3_Seg04]
23 139.999924 0.000119 0.000000 -17.893066 -14.434936 32.180984 139.999924
24 139.999924 0.000119 0.000000 -14.049060 -2.955146 30.433678 139.999924
[Rope3_Seg05]
23 139.999924 -0.000238 0.000060 -10.360211 -20.968321 5.433957 139.999924
24 139.999924 -0.000238 0.000060 -20.806095 -23.346640 10.881255 139.999924
[Rope3_Seg06]
23 139.999893 -0.000119 -0.000060 -2.084280 -6.705017 1.942326 139.999893
24 139.999893 -0.000119 -0.000060 -5.692400 -11.161847 1.946505 139.999893
[Rope3_Seg07]
23 139.999771 0.000060 -0.000119 -0.723802 -3.776448 0.990486 139.999771
24 139.999771 0.000060 -0.000119 -2.130583 -5.706404 0.949826 139.999771
[Rope3_Seg08]
23 139.999985 -0.000060 0.000000 -0.097148 -2.119743 0.527793 139.999985
24 139.999985 -0.000060 0.000000 -0.756705 -3.161372 0.408460 139.999985
[Rope3_Seg09]
23 90.185997 -0.000179 -0.000060 89.793228 -1.359877 -0.847183 90.185997
24 90.185997 -0.000179 -0.000060 89.793228 -1.359877 -0.847183 90.185997
[R_rear_hand01]
23 103.366196 -6.073594 -10.757982 -177.714203 24.565960 -73.910950 104.101845
24 103.366196 -6.073594 -10.757982 -177.714203 24.565960 -73.910950 104.101845
[R_rear_hand02]
23 100.509819 12.039542 -7.992327 -12.874829 36.868488 72.167213 101.543350
24 100.509819 12.039542 -7.992327 -12.874829 36.868488 72.167213 101.543350
[R_rear_hand03]
23 101.539970 5.215704 5.435467 71.484581 -71.816628 21.513813 101.819031
24 101.539970 5.215704 5.435467 71.484581 -71.816628 21.513813 101.819031
[Rope4_Seg01]
23 0.000000 0.000000 0.000000 -93.816185 -3.284591 -135.554413 0.000000
24 0.000000 0.000000 0.000000 -92.267036 -4.181321 -138.993744 0.000000
[Rope4_Seg02]
23 139.999985 0.000060 0.000119 -3.884528 8.686045 10.531538 139.999985
24 139.999985 0.000060 0.000119 -4.926535 7.372239 10.573899 139.999985
[Rope4_Seg03]
23 139.999924 0.000000 -0.000238 -8.076804 7.975420 11.422257 139.999924
24 139.999924 0.000000 -0.000238 -10.161204 6.584493 12.193735 139.999924
[Rope4_Seg04]
23 139.999985 0.000000 0.000119 -9.415105 4.028882 8.049022 139.999985
24 139.999985 0.000000 0.000119 -11.973871 1.956066 8.962547 139.999985
[Rope4_Seg05]
23 139.999802 -0.000060 -0.000119 -38.136681 5.337360 18.629049 139.999802
24 139.999802 -0.000060 -0.000119 -34.844486 3.584943 18.575541 139.999802
[Rope4_Seg06]
23 139.999924 0.000000 0.000060 -49.156940 -9.300635 22.856388 139.999924
24 139.999924 0.000000 0.000060 -45.819462 -8.816973 23.056435 139.999924
[Rope4_Seg07]
23 139.999802 0.000000 0.000000 -10.787002 -11.530047 4.239726 139.999802
24 139.999802 0.000000 0.000000 -11.373955 -11.492684 5.091809 139.999802
[Rope4_Seg08]
23 139.999924 0.000000 0.000119 -4.918359 -6.085605 1.031643 139.999924
24 139.999924 0.000000 0.000119 -5.083261 -6.071104 1.337284 139.999924
[Rope4_Seg09]
23 90.185791 0.000060 0.000060 -135.617828 2.228885 0.850567 90.185791
24 90.185791 0.000060 0.000060 -135.617828 2.228885 0.850567 90.185791
[L_rear_hand01]
23 101.696655 -8.392275 -7.654577 -12.874829 -36.868488 107.832764 102.329041
24 101.696655 -8.392275 -7.654577 -12.874829 -36.868488 107.832764 102.329041
[L_rear_hand02]
23 102.726799 -1.568258 5.773216 71.484581 71.816628 158.486160 102.900848
24 102.726799 -1.568258 5.773216 71.484581 71.816628 158.486160 102.900848
[L_rear_hand03]
23 104.552910 9.721220 -10.420293 -177.714203 -24.565960 -106.089035 105.519653
24 104.552910 9.721220 -10.420293 -177.714203 -24.565960 -106.089035 105.519653
